<svg version="1.1" id="Layer_1" xmlns="http://www.w3.org/2000/svg" xmlns:xlink="http://www.w3.org/1999/xlink" x="0px" y="0px"
	 width="100%" viewBox="0 0 532 146" enable-background="new 0 0 532 146" xml:space="preserve">
<path fill="none" opacity="1.000000" stroke="none" 
	d="
M349.000000,147.000000 
	C232.666672,147.000000 116.833336,147.000000 1.000000,147.000000 
	C1.000000,98.333336 1.000000,49.666668 1.000000,1.000000 
	C178.333328,1.000000 355.666656,1.000000 533.000000,1.000000 
	C533.000000,49.666668 533.000000,98.333336 533.000000,147.000000 
	C471.833344,147.000000 410.666656,147.000000 349.000000,147.000000 
M62.464050,71.500175 
	C62.464050,52.431629 62.464050,33.363083 62.464050,14.236871 
	C49.497093,14.236871 37.226933,14.236871 24.897766,14.236871 
	C24.897766,53.669716 24.897766,92.869476 24.897766,132.153015 
	C37.497520,132.153015 49.733295,132.153015 62.464264,132.153015 
	C62.464264,112.064186 62.464264,92.282188 62.464050,71.500175 
M106.175812,48.500000 
	C106.175812,37.106804 106.175812,25.713610 106.175812,14.299262 
	C93.309441,14.299262 81.386391,14.299262 69.237823,14.299262 
	C69.077538,15.345428 68.851624,16.133339 68.851189,16.921371 
	C68.830681,54.059830 68.859627,91.198364 68.773605,128.336639 
	C68.766182,131.538727 70.096283,132.253601 72.959869,132.217865 
	C82.284660,132.101501 91.617882,131.978363 100.935333,132.265106 
	C105.098686,132.393234 106.292397,131.096420 106.264107,126.940636 
	C106.088394,101.128090 106.175980,75.313751 106.175812,48.500000 
M150.486130,74.500259 
	C150.486130,54.427376 150.486130,34.354492 150.486130,14.291941 
	C137.490265,14.291941 125.074707,14.291941 112.917236,14.291941 
	C112.917236,53.803196 112.917236,93.025444 112.917236,132.172729 
	C125.571732,132.172729 137.820724,132.172729 150.486160,132.172729 
	C150.486160,113.075081 150.486160,94.287682 150.486130,74.500259 
M493.432648,62.499863 
	C493.432648,71.925278 493.432648,81.350685 493.432648,90.659592 
	C497.825134,90.659592 501.550262,90.659592 505.567749,90.659592 
	C505.567749,84.830452 505.505219,79.356827 505.606293,73.886223 
	C505.636200,72.269150 505.568878,69.992119 506.527130,69.191109 
	C508.367035,67.653145 510.944641,66.025475 513.150940,66.111481 
	C517.088745,66.264961 517.817566,69.928947 517.922729,73.144936 
	C518.115967,79.054649 517.977844,84.975197 517.977844,90.655167 
	C522.423279,90.655167 526.155029,90.655167 530.019958,90.655167 
	C530.019958,83.142242 530.118347,75.992775 529.989868,68.847389 
	C529.880798,62.782219 526.962524,58.291077 521.070984,57.267818 
	C516.207947,56.423183 511.039734,57.335663 505.476807,57.483612 
	C505.476807,50.795147 505.476807,42.879391 505.476807,34.787186 
	C501.268982,34.787186 497.562439,34.787186 493.432892,34.787186 
	C493.432892,43.923363 493.432892,52.711605 493.432648,62.499863 
M277.491547,80.494270 
	C277.491547,72.762688 277.491547,65.031113 277.491547,56.746746 
	C272.774261,57.050404 268.652100,57.315754 264.529907,57.581104 
	C264.570038,58.078068 264.610168,58.575035 264.650299,59.071999 
	C255.585663,54.182362 246.793900,55.416351 241.412552,62.333637 
	C236.115341,69.142761 236.390121,80.028114 242.027832,86.708977 
	C247.255981,92.904488 256.356384,93.809685 262.492737,90.207001 
	C268.767181,90.622246 273.014771,90.903358 277.491608,91.199638 
	C277.491608,87.464195 277.491608,84.477699 277.491547,80.494270 
M409.496887,48.017555 
	C412.084381,48.017555 414.671906,48.017555 417.132446,48.017555 
	C417.132446,43.786572 417.132446,40.247276 417.132446,36.674568 
	C404.281738,36.674568 391.860229,36.674568 379.211792,36.674568 
	C379.211792,40.472233 379.211792,44.035461 379.211792,48.050644 
	C383.480774,48.050644 387.553833,48.050644 392.028229,48.050644 
	C392.028229,62.540440 392.028229,76.586037 392.028229,90.755859 
	C396.350037,90.755859 400.240387,90.755859 404.628571,90.755859 
	C404.628571,76.465332 404.628571,62.426556 404.628571,48.017673 
	C406.261322,48.017673 407.395538,48.017673 409.496887,48.017555 
M235.000641,72.704918 
	C234.992279,66.350052 232.294281,61.492332 226.759048,58.361927 
	C217.727402,53.254150 205.315170,56.652866 200.263336,65.530190 
	C195.491028,73.916359 198.530548,84.502716 207.184464,89.635696 
	C216.389099,95.095329 229.031113,92.163116 234.396317,83.108345 
	C230.322906,81.530701 227.367401,77.000381 221.796448,81.586128 
	C217.613220,85.029533 211.541962,81.272125 211.476105,76.000679 
	C214.799026,76.000679 218.121857,76.000702 221.444687,76.000679 
	C224.938629,76.000664 228.448441,76.186745 231.917114,75.890694 
	C233.001862,75.798111 233.975616,74.405212 235.000641,72.704918 
M455.984253,74.485451 
	C455.984680,63.537468 451.044800,57.728714 440.412720,56.175072 
	C431.316986,54.845928 422.155304,60.798904 419.813202,69.560020 
	C417.488098,78.257431 421.821686,87.572975 430.226868,90.789009 
	C437.432129,93.545937 450.663696,92.981140 455.209106,83.413109 
	C449.285797,79.105965 448.934479,79.059921 442.938263,81.805107 
	C438.084930,84.027061 433.141541,81.531860 432.038208,75.396103 
	C440.100006,75.396103 447.987885,75.396103 455.984253,74.485451 
M328.436340,75.112579 
	C330.817444,76.255821 333.292725,77.244225 335.538239,78.610313 
	C336.595795,79.253685 337.211884,80.622665 338.028015,81.662834 
	C336.715454,82.105644 335.233368,83.169754 334.124207,82.867096 
	C331.491150,82.148613 329.034790,80.782509 326.344940,79.607330 
	C324.799561,82.229820 323.300232,84.774124 321.833618,87.262886 
	C326.745148,91.797050 334.110504,93.336586 341.592316,91.549530 
	C348.011719,90.016228 350.726776,87.188377 350.999664,81.751335 
	C351.290924,75.948532 348.758484,72.314522 342.922699,70.171272 
	C341.064301,69.488777 339.129578,68.960823 337.374939,68.074738 
	C336.642731,67.704979 336.289215,66.585373 335.763519,65.806717 
	C335.991669,65.426590 336.219849,65.046455 336.448029,64.666328 
	C339.893646,65.237038 343.339264,65.807747 347.057770,66.423653 
	C348.152008,64.134430 349.391479,61.541393 350.693604,58.817276 
	C344.456451,56.009518 338.741516,55.228073 332.734344,56.895363 
	C323.580414,59.436039 321.278931,67.771225 328.436340,75.112579 
M371.340729,66.670944 
	C373.272369,66.503830 375.204010,66.336708 377.154358,66.167976 
	C377.154358,62.949528 377.154358,60.086731 377.154358,57.143543 
	C374.867584,57.031590 372.909363,56.935726 370.439117,56.814793 
	C370.439117,52.787201 370.439117,48.876183 370.439117,44.876003 
	C366.212402,44.876003 362.514923,44.876003 358.467590,44.876003 
	C358.467590,49.012924 358.467590,52.792038 358.467590,56.585800 
	C356.599152,56.936123 355.070526,57.222740 353.826904,57.455914 
	C353.826904,60.600586 353.826904,63.365070 353.826904,66.050987 
	C355.548553,66.424606 356.953552,66.729507 358.510681,67.067421 
	C358.510681,71.118759 358.559570,74.938583 358.498444,78.756638 
	C358.420410,83.627327 359.233124,88.445389 363.872528,90.753662 
	C368.810974,93.210739 374.095093,92.682602 378.989838,89.924561 
	C378.003387,86.756516 377.125946,83.938545 376.144653,80.787003 
	C370.686340,82.538063 370.366516,79.111099 370.486938,75.252457 
	C370.569763,72.598412 370.630188,69.943665 371.340729,66.670944 
M296.996277,50.502285 
	C296.996277,45.219051 296.996277,39.935822 296.996277,34.824127 
	C292.714081,34.824127 288.976807,34.824127 285.298218,34.824127 
	C285.298218,53.692509 285.298218,72.249146 285.298218,90.698013 
	C289.336334,90.698013 293.071716,90.698013 296.996277,90.698013 
	C296.996277,77.434273 296.996277,64.467728 296.996277,50.502285 
M460.933044,65.729584 
	C456.831085,74.057594 458.509247,82.481415 465.377808,88.040977 
	C471.817780,93.253647 482.548340,93.563690 489.025421,88.583267 
	C487.725647,86.029236 486.410034,83.444092 485.074707,80.820160 
	C480.339233,82.531837 475.737152,83.307388 473.234070,78.715065 
	C471.963776,76.384499 471.749908,72.378075 472.908081,70.049065 
	C475.451263,64.934906 480.373596,65.612617 485.257812,67.457008 
	C486.648621,64.651894 487.930847,62.065788 489.193481,59.519276 
	C478.678558,53.329685 468.203461,55.544559 460.933044,65.729584 
M182.568146,58.811298 
	C181.953003,59.329395 181.337845,59.847492 180.373810,60.659443 
	C180.093521,59.244991 179.874298,58.138706 179.718811,57.354107 
	C175.554504,57.354107 171.820740,57.354107 168.332458,57.354107 
	C168.332458,68.767563 168.332458,79.827675 168.332458,90.667282 
	C172.402817,90.667282 176.138321,90.667282 179.997574,90.667282 
	C179.997574,87.853477 179.997589,85.369286 179.997589,82.885094 
	C179.997589,80.223824 179.949677,77.561516 180.007065,74.901482 
	C180.147949,68.371559 183.888306,65.545731 190.084122,67.271751 
	C190.968842,67.518211 191.809158,67.924103 192.874344,68.335014 
	C194.558289,64.806580 196.087769,61.601788 197.665939,58.294983 
	C192.400177,55.339687 187.764984,55.324314 182.568146,58.811298 
M314.186859,56.966496 
	C311.070496,56.966496 307.954132,56.966496 304.679932,56.966496 
	C304.679932,68.525490 304.679932,79.613937 304.679932,90.782684 
	C308.682800,90.782684 312.431549,90.782684 316.540436,90.782684 
	C316.540436,79.903236 316.561951,69.271339 316.479431,58.640240 
	C316.475159,58.084469 315.585968,57.535564 314.186859,56.966496 
M309.110626,50.372196 
	C315.129639,50.478142 318.937653,46.838787 317.701141,42.020729 
	C316.849243,38.701366 314.883148,36.541508 311.139587,36.430256 
	C307.616333,36.325554 304.987793,37.663479 303.932007,41.070118 
	C302.600861,45.365253 304.351837,48.391914 309.110626,50.372196 
z"/>
<path fill="#5CE1E6" opacity="1.000000" stroke="none" 
	d="
M62.464157,72.000183 
	C62.464264,92.282188 62.464264,112.064186 62.464264,132.153015 
	C49.733295,132.153015 37.497520,132.153015 24.897766,132.153015 
	C24.897766,92.869476 24.897766,53.669716 24.897766,14.236871 
	C37.226933,14.236871 49.497093,14.236871 62.464050,14.236871 
	C62.464050,33.363083 62.464050,52.431629 62.464157,72.000183 
z"/>
<path fill="#4A4A4A" opacity="1.000000" stroke="none" 
	d="
M106.176010,49.000000 
	C106.175980,75.313751 106.088394,101.128090 106.264107,126.940636 
	C106.292397,131.096420 105.098686,132.393234 100.935333,132.265106 
	C91.617882,131.978363 82.284660,132.101501 72.959869,132.217865 
	C70.096283,132.253601 68.766182,131.538727 68.773605,128.336639 
	C68.859627,91.198364 68.830681,54.059830 68.851189,16.921371 
	C68.851624,16.133339 69.077538,15.345428 69.237823,14.299262 
	C81.386391,14.299262 93.309441,14.299262 106.175812,14.299262 
	C106.175812,25.713610 106.175812,37.106804 106.176010,49.000000 
z"/>
<path fill="#FFFFFF" opacity="1.000000" stroke="none" 
	d="
M150.486145,75.000267 
	C150.486160,94.287682 150.486160,113.075081 150.486160,132.172729 
	C137.820724,132.172729 125.571732,132.172729 112.917236,132.172729 
	C112.917236,93.025444 112.917236,53.803196 112.917236,14.291941 
	C125.074707,14.291941 137.490265,14.291941 150.486130,14.291941 
	C150.486130,34.354492 150.486130,54.427376 150.486145,75.000267 
z"/>
<path fill="#57D5DA" opacity="1.000000" stroke="none" 
	d="
M493.432770,61.999855 
	C493.432892,52.711605 493.432892,43.923363 493.432892,34.787186 
	C497.562439,34.787186 501.268982,34.787186 505.476807,34.787186 
	C505.476807,42.879391 505.476807,50.795147 505.476807,57.483612 
	C511.039734,57.335663 516.207947,56.423183 521.070984,57.267818 
	C526.962524,58.291077 529.880798,62.782219 529.989868,68.847389 
	C530.118347,75.992775 530.019958,83.142242 530.019958,90.655167 
	C526.155029,90.655167 522.423279,90.655167 517.977844,90.655167 
	C517.977844,84.975197 518.115967,79.054649 517.922729,73.144936 
	C517.817566,69.928947 517.088745,66.264961 513.150940,66.111481 
	C510.944641,66.025475 508.367035,67.653145 506.527130,69.191109 
	C505.568878,69.992119 505.636200,72.269150 505.606293,73.886223 
	C505.505219,79.356827 505.567749,84.830452 505.567749,90.659592 
	C501.550262,90.659592 497.825134,90.659592 493.432648,90.659592 
	C493.432648,81.350685 493.432648,71.925278 493.432770,61.999855 
z"/>
<path fill="#FEFEFE" opacity="1.000000" stroke="none" 
	d="
M277.491577,80.992737 
	C277.491608,84.477699 277.491608,87.464195 277.491608,91.199638 
	C273.014771,90.903358 268.767181,90.622246 262.492737,90.207001 
	C256.356384,93.809685 247.255981,92.904488 242.027832,86.708977 
	C236.390121,80.028114 236.115341,69.142761 241.412552,62.333637 
	C246.793900,55.416351 255.585663,54.182362 264.650299,59.071999 
	C264.610168,58.575035 264.570038,58.078068 264.529907,57.581104 
	C268.652100,57.315754 272.774261,57.050404 277.491547,56.746746 
	C277.491547,65.031113 277.491547,72.762688 277.491577,80.992737 
M265.020630,77.387100 
	C264.471313,74.470230 264.746063,70.967911 263.184601,68.770111 
	C260.677124,65.240707 255.042160,65.789040 252.296371,69.033905 
	C249.749252,72.043983 249.957443,77.413094 252.718170,79.911865 
	C256.357788,83.206100 260.992767,82.487976 265.020630,77.387100 
z"/>
<path fill="#58D7DC" opacity="1.000000" stroke="none" 
	d="
M409.013336,48.017616 
	C407.395538,48.017673 406.261322,48.017673 404.628571,48.017673 
	C404.628571,62.426556 404.628571,76.465332 404.628571,90.755859 
	C400.240387,90.755859 396.350037,90.755859 392.028229,90.755859 
	C392.028229,76.586037 392.028229,62.540440 392.028229,48.050644 
	C387.553833,48.050644 383.480774,48.050644 379.211792,48.050644 
	C379.211792,44.035461 379.211792,40.472233 379.211792,36.674568 
	C391.860229,36.674568 404.281738,36.674568 417.132446,36.674568 
	C417.132446,40.247276 417.132446,43.786572 417.132446,48.017555 
	C414.671906,48.017555 412.084381,48.017555 409.013336,48.017616 
z"/>
<path fill="#FDFDFD" opacity="1.000000" stroke="none" 
	d="
M235.000397,73.156219 
	C233.975616,74.405212 233.001862,75.798111 231.917114,75.890694 
	C228.448441,76.186745 224.938629,76.000664 221.444687,76.000679 
	C218.121857,76.000702 214.799026,76.000679 211.476105,76.000679 
	C211.541962,81.272125 217.613220,85.029533 221.796448,81.586128 
	C227.367401,77.000381 230.322906,81.530701 234.396317,83.108345 
	C229.031113,92.163116 216.389099,95.095329 207.184464,89.635696 
	C198.530548,84.502716 195.491028,73.916359 200.263336,65.530190 
	C205.315170,56.652866 217.727402,53.254150 226.759048,58.361927 
	C232.294281,61.492332 234.992279,66.350052 235.000397,73.156219 
M212.470764,66.015617 
	C211.983322,66.816109 211.495895,67.616592 210.799606,68.760056 
	C215.143127,68.760056 218.953491,68.760056 222.881241,68.760056 
	C220.493301,63.619743 218.838409,63.100964 212.470764,66.015617 
z"/>
<path fill="#5BDFE4" opacity="1.000000" stroke="none" 
	d="
M455.929993,74.940781 
	C447.987885,75.396103 440.100006,75.396103 432.038208,75.396103 
	C433.141541,81.531860 438.084930,84.027061 442.938263,81.805107 
	C448.934479,79.059921 449.285797,79.105965 455.209106,83.413109 
	C450.663696,92.981140 437.432129,93.545937 430.226868,90.789009 
	C421.821686,87.572975 417.488098,78.257431 419.813202,69.560020 
	C422.155304,60.798904 431.316986,54.845928 440.412720,56.175072 
	C451.044800,57.728714 455.984680,63.537468 455.929993,74.940781 
M443.662689,67.241821 
	C441.431885,66.224709 439.198883,64.435623 436.970947,64.441879 
	C435.277924,64.446632 433.591278,66.734520 431.901794,68.006554 
	C432.166718,68.487854 432.431671,68.969147 432.696594,69.450447 
	C436.422394,68.978577 440.148193,68.506699 443.662689,67.241821 
z"/>
<path fill="#FDFDFD" opacity="1.000000" stroke="none" 
	d="
M328.164429,74.853821 
	C321.278931,67.771225 323.580414,59.436039 332.734344,56.895363 
	C338.741516,55.228073 344.456451,56.009518 350.693604,58.817276 
	C349.391479,61.541393 348.152008,64.134430 347.057770,66.423653 
	C343.339264,65.807747 339.893646,65.237038 336.448029,64.666328 
	C336.219849,65.046455 335.991669,65.426590 335.763519,65.806717 
	C336.289215,66.585373 336.642731,67.704979 337.374939,68.074738 
	C339.129578,68.960823 341.064301,69.488777 342.922699,70.171272 
	C348.758484,72.314522 351.290924,75.948532 350.999664,81.751335 
	C350.726776,87.188377 348.011719,90.016228 341.592316,91.549530 
	C334.110504,93.336586 326.745148,91.797050 321.833618,87.262886 
	C323.300232,84.774124 324.799561,82.229820 326.344940,79.607330 
	C329.034790,80.782509 331.491150,82.148613 334.124207,82.867096 
	C335.233368,83.169754 336.715454,82.105644 338.028015,81.662834 
	C337.211884,80.622665 336.595795,79.253685 335.538239,78.610313 
	C333.292725,77.244225 330.817444,76.255821 328.164429,74.853821 
z"/>
<path fill="#FEFEFE" opacity="1.000000" stroke="none" 
	d="
M371.020691,66.980087 
	C370.630188,69.943665 370.569763,72.598412 370.486938,75.252457 
	C370.366516,79.111099 370.686340,82.538063 376.144653,80.787003 
	C377.125946,83.938545 378.003387,86.756516 378.989838,89.924561 
	C374.095093,92.682602 368.810974,93.210739 363.872528,90.753662 
	C359.233124,88.445389 358.420410,83.627327 358.498444,78.756638 
	C358.559570,74.938583 358.510681,71.118759 358.510681,67.067421 
	C356.953552,66.729507 355.548553,66.424606 353.826904,66.050987 
	C353.826904,63.365070 353.826904,60.600586 353.826904,57.455914 
	C355.070526,57.222740 356.599152,56.936123 358.467590,56.585800 
	C358.467590,52.792038 358.467590,49.012924 358.467590,44.876003 
	C362.514923,44.876003 366.212402,44.876003 370.439117,44.876003 
	C370.439117,48.876183 370.439117,52.787201 370.439117,56.814793 
	C372.909363,56.935726 374.867584,57.031590 377.154358,57.143543 
	C377.154358,60.086731 377.154358,62.949528 377.154358,66.167976 
	C375.204010,66.336708 373.272369,66.503830 371.020691,66.980087 
z"/>
<path fill="#FFFFFF" opacity="1.000000" stroke="none" 
	d="
M296.996277,51.001732 
	C296.996277,64.467728 296.996277,77.434273 296.996277,90.698013 
	C293.071716,90.698013 289.336334,90.698013 285.298218,90.698013 
	C285.298218,72.249146 285.298218,53.692509 285.298218,34.824127 
	C288.976807,34.824127 292.714081,34.824127 296.996277,34.824127 
	C296.996277,39.935822 296.996277,45.219051 296.996277,51.001732 
z"/>
<path fill="#5BDFE4" opacity="1.000000" stroke="none" 
	d="
M461.114624,65.390396 
	C468.203461,55.544559 478.678558,53.329685 489.193481,59.519276 
	C487.930847,62.065788 486.648621,64.651894 485.257812,67.457008 
	C480.373596,65.612617 475.451263,64.934906 472.908081,70.049065 
	C471.749908,72.378075 471.963776,76.384499 473.234070,78.715065 
	C475.737152,83.307388 480.339233,82.531837 485.074707,80.820160 
	C486.410034,83.444092 487.725647,86.029236 489.025421,88.583267 
	C482.548340,93.563690 471.817780,93.253647 465.377808,88.040977 
	C458.509247,82.481415 456.831085,74.057594 461.114624,65.390396 
z"/>
<path fill="#FEFEFE" opacity="1.000000" stroke="none" 
	d="
M182.872726,58.590153 
	C187.764984,55.324314 192.400177,55.339687 197.665939,58.294983 
	C196.087769,61.601788 194.558289,64.806580 192.874344,68.335014 
	C191.809158,67.924103 190.968842,67.518211 190.084122,67.271751 
	C183.888306,65.545731 180.147949,68.371559 180.007065,74.901482 
	C179.949677,77.561516 179.997589,80.223824 179.997589,82.885094 
	C179.997589,85.369286 179.997574,87.853477 179.997574,90.667282 
	C176.138321,90.667282 172.402817,90.667282 168.332458,90.667282 
	C168.332458,79.827675 168.332458,68.767563 168.332458,57.354107 
	C171.820740,57.354107 175.554504,57.354107 179.718811,57.354107 
	C179.874298,58.138706 180.093521,59.244991 180.373810,60.659443 
	C181.337845,59.847492 181.953003,59.329395 182.872726,58.590153 
z"/>
<path fill="#EBEBEB" opacity="1.000000" stroke="none" 
	d="
M314.647766,56.974979 
	C315.585968,57.535564 316.475159,58.084469 316.479431,58.640240 
	C316.561951,69.271339 316.540436,79.903236 316.540436,90.782684 
	C312.431549,90.782684 308.682800,90.782684 304.679932,90.782684 
	C304.679932,79.613937 304.679932,68.525490 304.679932,56.966496 
	C307.954132,56.966496 311.070496,56.966496 314.647766,56.974979 
z"/>
<path fill="#F0F0F0" opacity="1.000000" stroke="none" 
	d="
M308.751190,50.275974 
	C304.351837,48.391914 302.600861,45.365253 303.932007,41.070118 
	C304.987793,37.663479 307.616333,36.325554 311.139587,36.430256 
	C314.883148,36.541508 316.849243,38.701366 317.701141,42.020729 
	C318.937653,46.838787 315.129639,50.478142 308.751190,50.275974 
z"/>
<path fill="#0E0E0E" opacity="1.000000" stroke="none" 
	d="
M264.839325,77.724525 
	C260.992767,82.487976 256.357788,83.206100 252.718170,79.911865 
	C249.957443,77.413094 249.749252,72.043983 252.296371,69.033905 
	C255.042160,65.789040 260.677124,65.240707 263.184601,68.770111 
	C264.746063,70.967911 264.471313,74.470230 264.839325,77.724525 
z"/>
<path fill="#0D0D0D" opacity="1.000000" stroke="none" 
	d="
M212.755737,65.733536 
	C218.838409,63.100964 220.493301,63.619743 222.881241,68.760056 
	C218.953491,68.760056 215.143127,68.760056 210.799606,68.760056 
	C211.495895,67.616592 211.983322,66.816109 212.755737,65.733536 
z"/>
<path fill="#050C0C" opacity="1.000000" stroke="none" 
	d="
M443.768341,67.638321 
	C440.148193,68.506699 436.422394,68.978577 432.696594,69.450447 
	C432.431671,68.969147 432.166718,68.487854 431.901794,68.006554 
	C433.591278,66.734520 435.277924,64.446632 436.970947,64.441879 
	C439.198883,64.435623 441.431885,66.224709 443.768341,67.638321 
z"/>
</svg>